<svg width="39" height="40" viewBox="0 0 39 40" fill="none" xmlns="http://www.w3.org/2000/svg">
<path d="M19.5 0C30.2696 0 39 8.9543 39 20C39 31.0457 30.2696 40 19.5 40C8.73045 40 2.51277e-07 31.0457 0 20C0 8.9543 8.73045 0 19.5 0ZM19.5 8C15.1922 8 11.7002 11.6173 11.7002 16.0791C11.7002 17.3044 11.9633 18.4664 12.4346 19.5068C14.2877 23.971 19.5225 32 19.5225 32C19.5305 31.987 25.5882 22.2567 26.8291 18.8721H26.8213C27.1309 18.0017 27.2998 17.0608 27.2998 16.0791C27.2998 11.6173 23.8078 8 19.5 8Z" fill="black"/>
<path d="M19.5002 20.6666C22.0131 20.6666 24.0502 18.5772 24.0502 15.9999C24.0502 13.4226 22.0131 11.3333 19.5002 11.3333C16.9873 11.3333 14.9502 13.4226 14.9502 15.9999C14.9502 18.5772 16.9873 20.6666 19.5002 20.6666Z" fill="black"/>
</svg>
