<svg width="39" height="40" viewBox="0 0 39 40" fill="none" xmlns="http://www.w3.org/2000/svg">
<path d="M19.5 0C30.2696 0 39 8.9543 39 20C39 31.0457 30.2696 40 19.5 40C8.73045 40 2.51277e-07 31.0457 0 20C0 8.9543 8.73045 0 19.5 0ZM19.499 9.33301C16.6765 9.33301 16.3218 9.3457 15.2129 9.39746C14.1057 9.44946 13.3498 9.62977 12.6885 9.89355C12.0045 10.166 11.4238 10.5299 10.8457 11.123C10.2672 11.7159 9.912 12.3114 9.64551 13.0127C9.3877 13.6911 9.21292 14.4665 9.16309 15.6016C9.11347 16.7393 9.09961 17.1032 9.09961 20C9.09961 22.8969 9.11282 23.2597 9.16309 24.3975C9.21402 25.5329 9.38953 26.3081 9.64648 26.9863C9.91232 27.6878 10.2675 28.2832 10.8457 28.876C11.4235 29.4692 12.004 29.834 12.6875 30.1064C13.3492 30.3702 14.105 30.5505 15.2119 30.6025C16.3212 30.6543 16.6758 30.667 19.5 30.667C22.3244 30.667 22.6778 30.6543 23.7871 30.6025C24.8943 30.5505 25.6508 30.3702 26.3125 30.1064C26.9962 29.834 27.5756 29.4691 28.1533 28.876C28.7318 28.2831 29.087 27.6876 29.3535 26.9863C29.6092 26.3079 29.7849 25.5326 29.8369 24.3975C29.8867 23.2597 29.9004 22.8969 29.9004 20C29.9004 17.1032 29.8867 16.7393 29.8369 15.6016C29.7849 14.4662 29.6092 13.6909 29.3535 13.0127C29.087 12.3113 28.7317 11.7158 28.1533 11.123C27.5749 10.5299 26.9961 10.1657 26.3115 9.89355C25.6486 9.62984 24.8922 9.44945 23.7852 9.39746C22.6763 9.34571 22.3228 9.33301 19.499 9.33301Z" fill="black"/>
<path d="M18.5679 11.2559C18.8448 11.2554 19.1544 11.2559 19.5015 11.2559C22.2779 11.2559 22.6071 11.2663 23.7036 11.3174C24.7175 11.3649 25.2677 11.5386 25.6343 11.6846C26.1196 11.8779 26.4658 12.1091 26.8296 12.4824C27.1935 12.8557 27.419 13.2113 27.6079 13.709C27.7502 14.0845 27.9202 14.6488 27.9663 15.6885C28.0161 16.8129 28.0269 17.1514 28.0269 19.998C28.0269 22.8444 28.0161 23.1822 27.9663 24.3066C27.9199 25.3466 27.7503 25.9116 27.6079 26.2871C27.4195 26.7846 27.1934 27.1387 26.8296 27.5117C26.4656 27.8851 26.1198 28.1162 25.6343 28.3096C25.2681 28.4562 24.7175 28.6302 23.7036 28.6777C22.6073 28.7288 22.2779 28.7393 19.5015 28.7393C16.7244 28.7393 16.3947 28.7288 15.2983 28.6777C14.2847 28.6297 13.7345 28.4555 13.3677 28.3096C12.8823 28.1162 12.5354 27.8851 12.1714 27.5117C11.8075 27.1385 11.582 26.784 11.3931 26.2861C11.2507 25.9106 11.0808 25.3457 11.0347 24.3057C10.9848 23.1813 10.9751 22.8434 10.9751 19.9951C10.9751 17.147 10.9849 16.8106 11.0347 15.6865C11.081 14.6469 11.2507 14.0821 11.3931 13.7061C11.5816 13.2083 11.8074 12.8519 12.1714 12.4785C12.5353 12.1053 12.8824 11.8744 13.3677 11.6807C13.7343 11.534 14.2847 11.3603 15.2983 11.3125C16.2577 11.2681 16.6297 11.2552 18.5679 11.2529V11.2559ZM19.5005 14.5225C16.5513 14.5228 14.1597 16.9751 14.1597 20C14.1597 23.0251 16.552 25.4766 19.5015 25.4766C22.4508 25.4763 24.8413 23.025 24.8413 20C24.8412 16.9749 22.45 14.5225 19.5005 14.5225ZM24.9253 13.0332C24.296 13.0985 23.8042 13.6438 23.8042 14.3066C23.8044 15.0131 24.3635 15.5858 25.0522 15.5859C25.7411 15.5859 26.3001 15.0132 26.3003 14.3066C26.3003 13.6 25.7413 13.0264 25.0522 13.0264L24.9253 13.0332Z" fill="black"/>
<path d="M19.5009 16.4446C21.4154 16.4446 22.9676 18.0364 22.9676 20.0002C22.9676 21.9637 21.4154 23.5558 19.5009 23.5558C17.5862 23.5558 16.0342 21.9637 16.0342 20.0002C16.0342 18.0364 17.5862 16.4446 19.5009 16.4446Z" fill="black"/>
</svg>
