<svg width="39" height="40" viewBox="0 0 39 40" fill="none" xmlns="http://www.w3.org/2000/svg">
<path d="M19.5 0C30.2696 0 39 8.9543 39 20C39 31.0457 30.2696 40 19.5 40C8.73045 40 2.51277e-07 31.0457 0 20C0 8.9543 8.73045 0 19.5 0ZM29.1318 16.7998C29.1318 16.7998 21.4415 21.0771 19.7715 21.0771C18.2477 21.0767 10.4119 16.8001 10.4121 16.7998L10.4004 26.4004C10.4006 27.2834 11.1001 28 11.9619 28H27.582C28.4453 27.9999 29.1443 27.2833 29.1445 26.4004L29.1318 16.7998ZM11.9619 12C11.0994 12 10.4006 12.7166 10.4004 13.5996V14.3125C10.4413 14.3363 18.2516 18.8775 19.7715 18.8779C21.3655 18.8779 29.1057 14.4154 29.1318 14.4004L29.1445 13.5996C29.1443 12.7167 28.4453 12.0001 27.582 12H11.9619Z" fill="black"/>
</svg>
